#define _width 38
#define _height 35
static char _bits[] = {
 0x00,0x00,0x00,0x00,0x00,0x00,0x00,0x00,0x00,0x00,0x00,0x00,0x00,0x00,0x00,
 0x00,0x00,0x00,0x00,0x00,0x00,0x00,0x00,0x00,0x00,0x00,0x00,0x00,0x00,0x00,
 0x00,0x00,0x00,0x00,0x00,0x00,0x00,0x00,0x00,0x00,0x00,0x00,0x00,0x00,0x00,
 0x00,0xff,0xff,0x7f,0x00,0x00,0x01,0x00,0x40,0x00,0x00,0x01,0x00,0x40,0x00,
 0x00,0x01,0x00,0x40,0x00,0x00,0x01,0x00,0x40,0x00,0x00,0x01,0x00,0x40,0x00,
 0x00,0x01,0x00,0x40,0x00,0x00,0x01,0x00,0x40,0x00,0x00,0x01,0x00,0x40,0x00,
 0x00,0x01,0x00,0x40,0x00,0x00,0x01,0x00,0x40,0x00,0x00,0x01,0x00,0x40,0x00,
 0x00,0x01,0x00,0x40,0x00,0x00,0x01,0x00,0x40,0x00,0x00,0x01,0x00,0x40,0x00,
 0x00,0x01,0x00,0x40,0x00,0x00,0x01,0x00,0x40,0x00,0x00,0xff,0xff,0x7f,0x00,
 0x00,0x00,0x00,0x00,0x00,0x00,0x00,0x00,0x00,0x00,0x00,0x00,0x00,0x00,0x00,
 0x00,0x00,0x00,0x00,0x00,0x00,0x00,0x00,0x00,0x00,0x00,0x00,0x00,0x00,0x00,
 0x00,0x00,0x00,0x00,0x00,0x00,0x00,0x00,0x00,0x00 };
